<svg width='200' height='200' fill="#FFFFFF" xmlns:dc="http://purl.org/dc/elements/1.1/" xmlns:cc="http://creativecommons.org/ns#" xmlns:rdf="http://www.w3.org/1999/02/22-rdf-syntax-ns#" xmlns:svg="http://www.w3.org/2000/svg" xmlns="http://www.w3.org/2000/svg" xmlns:sodipodi="http://sodipodi.sourceforge.net/DTD/sodipodi-0.dtd" xmlns:inkscape="http://www.inkscape.org/namespaces/inkscape" viewBox="0 0 16 16" version="1.1" x="0px" y="0px"><g transform="translate(0,-1036.3622)"><path style="color:#000000;font-style:normal;font-variant:normal;font-weight:normal;font-stretch:normal;font-size:medium;line-height:normal;font-family:sans-serif;text-indent:0;text-align:start;text-decoration:none;text-decoration-line:none;text-decoration-style:solid;text-decoration-color:#000000;letter-spacing:normal;word-spacing:normal;text-transform:none;direction:ltr;block-progression:tb;writing-mode:lr-tb;baseline-shift:baseline;text-anchor:start;white-space:normal;clip-rule:nonzero;display:inline;overflow:visible;visibility:visible;opacity:1;isolation:auto;mix-blend-mode:normal;color-interpolation:sRGB;color-interpolation-filters:linearRGB;solid-color:#000000;solid-opacity:1;fill:#FFFFFF;fill-opacity:1;fill-rule:nonzero;stroke:none;stroke-width:1;stroke-linecap:butt;stroke-linejoin:miter;stroke-miterlimit:4;stroke-dasharray:none;stroke-dashoffset:0;stroke-opacity:1;color-rendering:auto;image-rendering:auto;shape-rendering:auto;text-rendering:auto;enable-background:accumulate" d="M 8.5 0 C 7.6776486 0 7 0.6777 7 1.5 L 7 2.0917969 C 6.8427609 2.035166 6.6756317 2 6.5 2 C 5.6776486 2 5 2.6777 5 3.5 L 5 4.0917969 C 4.8427609 4.035166 4.6756317 4 4.5 4 C 3.6776486 4 3 4.6777 3 5.5 L 3 9.5 L 3 10 L 3 10.5 C 3 13.5384 5.4616486 16 8.5 16 C 11.538351 16 14 13.5384 14 10.5 L 14 9.5 L 14 7.5 C 14 6.6777 13.322351 6 12.5 6 C 12.324368 6 12.157239 6.035166 12 6.0917969 L 12 3.5 C 12 2.6777 11.322351 2 10.5 2 C 10.324368 2 10.157239 2.035166 10 2.0917969 L 10 1.5 C 10 0.6777 9.3223514 0 8.5 0 z M 8.5 1 C 8.7856486 1 9 1.2144 9 1.5 L 9 8 L 10 8 L 10 3.5 C 10 3.2144 10.214351 3 10.5 3 C 10.785649 3 11 3.2144 11 3.5 L 11 8 L 11 9.5 L 12 9.5 L 12 7.5 C 12 7.2144 12.214351 7 12.5 7 C 12.785649 7 13 7.2144 13 7.5 L 13 9.5 L 13 10.5 C 13 13.0017 11.001649 15 8.5 15 C 5.9983514 15 4 13.0017 4 10.5 L 4 10 L 4 9.5 L 4 5.5 C 4 5.2144 4.2143514 5 4.5 5 C 4.7856486 5 5 5.2144 5 5.5 L 5 8 L 6 8 L 6 5.5 L 6 3.5 C 6 3.2144 6.2143514 3 6.5 3 C 6.7856486 3 7 3.2144 7 3.5 L 7 8 L 8 8 L 8 3.5 L 8 1.5 C 8 1.2144 8.2143514 1 8.5 1 z " transform="translate(0,1036.3622)"></path></g></svg>