<?xml version="1.0" encoding="utf-8"?>
<!-- Generator: Adobe Illustrator 16.0.0, SVG Export Plug-In . SVG Version: 6.00 Build 0)  -->
<!DOCTYPE svg PUBLIC "-//W3C//DTD SVG 1.1//EN" "http://www.w3.org/Graphics/SVG/1.1/DTD/svg11.dtd">
<svg version="1.1" id="Layer_1" xmlns="http://www.w3.org/2000/svg" xmlns:xlink="http://www.w3.org/1999/xlink" x="0px" y="0px"
	 width="1499.397px" height="283.46px" viewBox="0 0 1499.397 283.46" enable-background="new 0 0 1499.397 283.46"
	 xml:space="preserve">
<g>
	<g>
		<path d="M10.293,242.066l36.972-26.459c11.77,13.424,25.33,20.135,40.682,20.135c10.318,0,19.209-3.095,26.673-9.287
			c7.462-6.192,12.685-14.354,15.671-24.486H70.292v-35.948h59.487c-3.242-9.189-8.551-16.583-15.927-22.18
			c-7.378-5.597-16.013-8.396-25.906-8.396c-15.779,0-29.084,5.973-39.914,17.918l-34.285-29.044
			c18.762-23.115,43.282-34.673,73.56-34.673c13.645,0,26.481,2.473,38.507,7.416s22.28,11.655,30.767,20.135
			c8.485,8.481,15.18,18.582,20.085,30.301c4.903,11.72,7.356,24.186,7.356,37.396c0,18.095-4.222,34.457-12.665,49.094
			c-8.443,14.636-19.873,26.027-34.285,34.177c-14.414,8.151-30.277,12.226-47.59,12.226c-18.338,0-33.795-3.332-46.375-9.991
			C30.526,263.738,19.588,254.294,10.293,242.066z"/>
		<path d="M276.003,276.68V93.229h50.788v69.082h65.244V93.229h50.788V276.68h-50.788v-69.722h-65.244v69.722H276.003z"/>
		<path d="M534.549,185.018c0-13.229,2.438-25.71,7.32-37.443c4.879-11.733,11.542-21.848,19.987-30.339
			c8.443-8.491,18.669-15.214,30.675-20.163c12.005-4.949,24.83-7.426,38.477-7.426c32.664,0,58.336,12.779,77.014,38.335
			l-37.228,28.95c-11.344-14.324-24.818-21.486-40.426-21.486c-12.709,0-23.178,4.768-31.407,14.302
			c-8.231,9.535-12.345,21.292-12.345,35.271c0,14.066,4.113,25.846,12.345,35.337c8.229,9.49,18.698,14.236,31.407,14.236
			c8.955,0,16.567-1.877,22.835-5.631c6.27-3.754,12.474-9.383,18.614-16.891l38.251,27.442
			c-6.227,8.411-12.816,15.478-19.766,21.196c-6.952,5.721-15.693,10.431-26.225,14.131c-10.535,3.7-22.282,5.551-35.245,5.551
			c-17.314,0-33.156-4.069-47.524-12.21c-14.37-8.139-25.756-19.517-34.157-34.133C538.749,219.431,534.549,203.088,534.549,185.018
			z"/>
		<path d="M775.059,276.68l78.165-184.73h48.997l78.037,184.73H925.76l-13.433-32.75h-70.745l-13.049,32.75H775.059z
			 M856.55,204.399h41.193l-20.469-52.195L856.55,204.399z"/>
		<path d="M1060.537,276.68V93.229h50.276v103.239l71.001-103.239h47.462V276.68H1179V173.44l-71.001,103.239H1060.537z"/>
		<path d="M1321.137,276.68V93.229h50.788v69.082h65.244V93.229h50.788V276.68h-50.788v-69.722h-65.244v69.722H1321.137z"/>
	</g>
	<rect x="1060.5" y="6.083" width="168.625" height="43.75"/>
</g>
</svg>
